<?xml version="1.0" encoding="UTF-8"?>
<!DOCTYPE svg PUBLIC "-//W3C//DTD SVG 1.1//EN" "http://www.w3.org/Graphics/SVG/1.1/DTD/svg11.dtd">
<!-- Creator: CorelDRAW 2020 (64-Bit) -->
<svg xmlns="http://www.w3.org/2000/svg" xml:space="preserve" width="2048px" height="2048px" version="1.1" style="shape-rendering:geometricPrecision; text-rendering:geometricPrecision; image-rendering:optimizeQuality; fill-rule:evenodd; clip-rule:evenodd"
viewBox="0 0 2048 2048"
 xmlns:xlink="http://www.w3.org/1999/xlink"
 xmlns:xodm="http://www.corel.com/coreldraw/odm/2003">
 <defs>
  <style type="text/css">
   <![CDATA[
    .fil0 {fill:#FEFEFE}
    .fil2 {fill:#084261}
    .fil1 {fill:#205E80}
    .fil3 {fill:#3F82A6}
   ]]>
  </style>
 </defs>
 <g id="Layer_x0020_1">
  <metadata id="CorelCorpID_0Corel-Layer"/>
  <polygon class="fil0" points="559.85,1361.4 796.85,1364.51 963.33,1338.52 1229.57,1257.26 1425.76,1169.09 1427.08,483.44 1194.48,404.97 844.48,633.09 572.6,892.47 "/>
  <g id="_2392672718800">
   <path class="fil1" d="M1824.56 1887.02c-180.81,1.59 -365.98,4.12 -549.08,4.12 -180.62,0 -370.31,5.83 -549.75,-0.82 20.29,-26.15 234.97,-113.03 417.94,-279.82 94.4,-86.06 261.44,-272.42 301.89,-393.32 -43.32,16.42 -136.5,69 -208.86,96.56 -231.37,88.09 -529.09,155.9 -775.55,100.24 -223.35,-50.45 -215.51,-194.45 -93.1,-351.71 73.08,-93.88 57.87,-66.13 122.05,-184.61 27.45,-50.67 98.12,-163.54 111.04,-208.67 -97.53,20.41 -304.05,161.61 -381.14,239.36 -19.68,19.85 -32.99,29.9 -52.2,51.44 -76.64,85.96 -162.2,210.66 -161.76,353.14 0.2,64.13 23.57,120.53 49.22,159.04 20.89,31.39 73.85,83.47 109.14,97.51 -12.12,94.74 -13.99,141.66 32,213.73 29.03,45.48 78.26,91.23 148.25,104.11 86,15.82 1195.65,6.26 1422.14,7.4 8.38,0.04 20.56,0.49 28.56,-0.14l29.21 -7.56z"/>
   <path class="fil2" d="M1445.56 1217.18c-40.45,120.9 -207.49,307.26 -301.89,393.32 -182.97,166.79 -397.65,253.67 -417.94,279.82 179.44,6.65 369.13,0.82 549.75,0.82 183.1,0 368.27,-2.53 549.08,-4.12 105.13,13.87 266.2,-157.2 191.35,-339.35l-101.24 -183.11c-32.3,-61.18 -73.2,-124.98 -102.62,-186.93 -5.38,2.23 -250.37,202.77 -370.79,233.77 118.47,-64.23 255.76,-177.68 346.14,-276.63 72.24,-79.09 223.66,-280.23 246.84,-387.95l-134.86 134.55c-42.05,43.37 -90.15,85.57 -139.88,124.62 -61.89,48.6 -161.61,124.48 -232.69,163.28 -22,12.01 -64.1,33.79 -81.25,47.91z"/>
   <path class="fil3" d="M782.29 1363.83l-20.71 -1.44c-0.1,-37.65 -5.61,-64.54 7.84,-76.29 6.13,-5.36 8.01,-6.35 13.38,-9.92 11.42,-7.6 15.31,-11.16 30.22,-14.29l0.82 -497.69 148.79 -0.99 0.7 575.31 22.52 -6.93c-23.92,-4.88 -16.81,14.99 -16.61,-71.44 0.36,-158.43 -11.4,-126.27 48.83,-187.65l-2.31 250.93c10.32,-9.77 8.84,9.16 8.75,-28.06l0.86 -663.64 148.88 0.37 2.71 639.79c13.1,10.11 3.59,1.1 7.23,-2.29l-0.98 -412.2c2.34,-16.54 44.71,-82.88 44.78,-83.21 0.44,-2.2 1.96,-2.44 3.83,-3.58l-2.25 486.65c16.27,-21.68 8.64,-157.91 8.83,-185.01l-1.97 -583.21 148.98 0.68 -0.13 698.81c23.66,-5.34 10.03,-0.92 20.55,-11.54 -15.04,-1.61 -5.06,3.46 -13.67,-4.92l-2.27 -688.94 -59.81 -1.07c1.76,-25.22 7.34,-46.47 10.39,-68.95 4.52,-33.42 -0.22,-46.27 16.98,-56.13 -33.4,-63.39 -74.61,-142.02 -117.5,-175.26 -57.63,-44.66 -151.16,-61.14 -229.96,-32.12 -93.84,34.56 -143.46,138.28 -194.73,238.56 -17.7,34.61 -35.23,63.33 -53.85,96.69 -77.63,139.03 -180.5,334.22 -260.24,468.9 -17.63,29.79 -34.85,65.59 -51.44,93.48 -36.49,61.34 -71.35,129.91 -105.62,189.43 31.8,66.97 107.37,99.54 174.99,117.25 26.07,6.82 60.39,8.93 81.52,14.84l1.93 -460.97 149.31 -0.97 1.72 461.23c18.27,2.8 16.87,4.12 28.71,-4.21z"/>
   <g>
    <path class="fil1" d="M1405.83 1176.99c52,-16.08 273.42,-147.88 303.43,-181.07l-351.81 -638.94c-17.2,9.86 -12.46,22.71 -16.98,56.13 -3.05,22.48 -8.63,43.73 -10.39,68.95l59.81 1.07 2.27 688.94c8.61,8.38 -1.37,3.31 13.67,4.92z"/>
    <path class="fil1" d="M1184.19 1269.6l45.38 -12.34 2.25 -486.65c-1.87,1.14 -3.39,1.38 -3.83,3.58 -0.07,0.33 -42.44,66.67 -44.78,83.21l0.98 412.2z"/>
    <path class="fil1" d="M985.85 1331.59l29.91 -8.16 2.31 -250.93c-60.23,61.38 -48.47,29.22 -48.83,187.65 -0.2,86.43 -7.31,66.56 16.61,71.44z"/>
    <path class="fil1" d="M782.29 1363.83l29.11 1.37 1.62 -103.31c-14.91,3.13 -18.8,6.69 -30.22,14.29 -5.37,3.57 -7.25,4.56 -13.38,9.92 -13.45,11.75 -7.94,38.64 -7.84,76.29l20.71 1.44z"/>
   </g>
  </g>
 </g>
</svg>
